<svg xmlns="http://www.w3.org/2000/svg" viewBox="0 0 100 100">
  <!-- Dinosaur skull icon in brown/amber tones -->
  <g fill="#8B6F47" stroke="#654321" stroke-width="2">
    <!-- Skull cranium -->
    <ellipse cx="50" cy="45" rx="30" ry="28" fill="#A0826D"/>
    
    <!-- Eye sockets -->
    <ellipse cx="38" cy="40" rx="8" ry="10" fill="#2a1810"/>
    <ellipse cx="62" cy="40" rx="8" ry="10" fill="#2a1810"/>
    
    <!-- Snout/jaw -->
    <path d="M 30 55 Q 25 65, 35 75 L 65 75 Q 75 65, 70 55 Z" fill="#8B6F47"/>
    
    <!-- Teeth -->
    <path d="M 35 75 L 38 68 L 41 75" fill="#E8DCC8" stroke="#654321" stroke-width="1"/>
    <path d="M 43 75 L 46 68 L 49 75" fill="#E8DCC8" stroke="#654321" stroke-width="1"/>
    <path d="M 51 75 L 54 68 L 57 75" fill="#E8DCC8" stroke="#654321" stroke-width="1"/>
    <path d="M 59 75 L 62 68 L 65 75" fill="#E8DCC8" stroke="#654321" stroke-width="1"/>
    
    <!-- Nasal cavity -->
    <ellipse cx="50" cy="52" rx="5" ry="6" fill="#2a1810"/>
    
    <!-- Bone texture details -->
    <path d="M 35 35 Q 40 38, 45 35" fill="none" stroke="#654321" stroke-width="1" opacity="0.5"/>
    <path d="M 55 35 Q 60 38, 65 35" fill="none" stroke="#654321" stroke-width="1" opacity="0.5"/>
  </g>
</svg>
